<?xml version="1.0" encoding="UTF-8"?>
<svg id="Camada_1" data-name="Camada 1" xmlns="http://www.w3.org/2000/svg" viewBox="0 0 334.17 138.86">
  <defs>
    <style>
      .cls-1 {
        fill: #2e70b7;
      }

      .cls-2, .cls-3 {
        fill: #3b2314;
      }

      .cls-4 {
        fill: #f8b921;
        opacity: .99;
      }

      .cls-4, .cls-5, .cls-3, .cls-6, .cls-7 {
        isolation: isolate;
      }

      .cls-4, .cls-5, .cls-3, .cls-6, .cls-8, .cls-9 {
        fill-rule: evenodd;
      }

      .cls-5 {
        fill: #e6621e;
        opacity: 1;
      }

      .cls-3, .cls-7 {
        opacity: 1;
      }

      .cls-6 {
        fill: #469c38;
        opacity: .99;
      }

      .cls-8 {
        fill: #3c2314;
      }

      .cls-9 {
        fill: #c0732c;
      }
    </style>
  </defs>
  <path class="cls-4" d="M82.15,1.01c.98-1.24,2.33-1.44,3.89,0,1.27,4.46,2.5,9.05,5.27,12.77,1.45,1.94,3.57,3.29,5.83,4.16,2.74,1.06,5.59,1.77,8.33,2.78,1.48,1.67,1.48,3.33,0,5-6.05,1.22-11.85,3.53-15.27,8.61-1.87,2.78-2.55,6.17-3.33,9.44-1.73,1.8-3.58,1.98-5.55,.56-1.07-5.2-2.84-10.32-6.94-13.6-3.45-2.76-7.91-3.87-12.22-5-1.48-1.67-1.48-3.33,0-5,5.18-1.17,10.51-2.59,14.16-6.39,.92-.96,4.46-10.1,5.83-13.33Z"/>
  <path class="cls-5" d="M52.39,54.51c.86,4.77-1.08,7.37-5.83,7.77-10.03-1.49-27.2-3.49-31.37-4.44-2.32-1.31-2.78-3.17-1.39-5.55,7.91-10.08,15.68-20.26,23.32-30.54,2.07-1.95,4.3-2.13,6.66-.56,3.27,11.01,6.14,22.12,8.61,33.31Z"/>
  <path class="cls-6" d="M129.45,28.66c13.65,.14,23.03,8.29,25.82,21.65,2.15,10.31-1.75,19.03-9.72,25.82-1.44,.43-2.83,.33-4.16-.28-2.58-11.56-8.54-20.92-18.6-26.93-3.85-2.3-8.01-4.01-12.22-5.55-1.69-1.36-1.97-2.93-.83-4.72,5.23-6.09,11.79-10.08,19.71-9.99Z"/>
  <path class="cls-9" d="M131.46,95.96c6.49,3.79,7.23,8.6,2.22,14.44l-1.67,.83c-2.29,.14-4.51,.23-6.66,.28-9.47,19.35-24.83,26.85-46.09,22.49-11.83-3.88-20.16-11.56-24.99-23.04-6.72,1.54-10.42-1.14-11.1-8.05,.53-2.64,1.82-4.77,3.89-6.39,2.82-.71,5.6-.52,8.33,.56,1.01-4.49,2.12-8.93,3.33-13.33,16.99,1.52,32.07-2.92,45.25-13.33,4.29,7.99,10.77,13.36,19.43,16.1,.7,3.62,1.72,7.13,3.05,10.55,1.54-.91,3.21-1.28,5-1.11Z"/>
  <path class="cls-3" d="M134.79,94.29c-.96-9.82-4.2-18.89-9.72-27.21-14.13-16.01-31.44-20.72-51.92-14.16-17.44,7.93-26.69,21.53-27.76,40.81-.69,.25-4.6,3.26-5.32,7-1.45,7.54,1.64,13.4,12.54,14.93,6.52,12.51,21.09,23.2,37.57,23.2,18.94,0,30.74-11.09,37.38-23.2,6.61-.14,10.78-3.38,12.49-9.72,.92-5.19-.84-9.08-5.27-11.66Zm-1.11,16.1l-1.67,.83c-2.29,.14-4.51,.23-6.66,.28-9.47,19.35-24.83,26.85-46.09,22.49-11.83-3.88-20.16-11.56-24.99-23.04-6.72,1.54-10.79-3.5-10.34-7.88,.67-6.55,8.72-7.08,11.45-6,1.01-4.49,2.12-8.93,3.33-13.33,16.99,1.52,32.07-2.92,45.25-13.33,4.29,7.99,10.77,13.36,19.43,16.1,.7,3.62,1.72,7.13,3.05,10.55,1.54-.91,3.21-1.28,5-1.11,6.49,3.79,7.23,8.6,2.22,14.44Z"/>
  <path class="cls-8" d="M75.99,111.78l2.46-1.65s4.23,9.18,11.87,9.25c9.2,.08,11.69-9.25,11.69-9.25l2.24,1.65s-2.55,10.96-13.93,10.96c-8.74,0-14.33-10.96-14.33-10.96Z"/>
  <g>
    <circle class="cls-2" cx="75.44" cy="96.4" r="4.34"/>
    <circle class="cls-2" cx="105.19" cy="96.4" r="4.34"/>
  </g>
  <circle class="cls-2" cx="90.32" cy="105.54" r="2.73"/>
  <circle class="cls-1" cx="17.19" cy="91.85" r="17.19"/>
  <g class="cls-7">
    <path class="cls-2" d="M150.51,84.16h25.92v8.68h-15.79v7.52h12.61v8.68h-12.61v7.81h16.6v8.68h-26.73v-41.36Z"/>
    <path class="cls-2" d="M191.3,92.84h-12.55v-8.68h35.23v8.68h-12.55v32.68h-10.12v-32.68Z"/>
    <path class="cls-2" d="M217.9,84.16h10.24l11.45,19.32c1.62,2.72,3.47,7.06,3.47,7.06h.12s-.46-4.45-.46-7.06v-19.32h10.12v41.36h-10.18l-11.51-19.26c-1.62-2.72-3.47-7.06-3.47-7.06h-.12s.46,4.45,.46,7.06v19.26h-10.12v-41.36Z"/>
    <path class="cls-2" d="M280.2,83.47c12.49,0,21.63,9.26,21.63,21.11s-9.14,21.63-21.63,21.63-21.63-9.49-21.63-21.63,9.14-21.11,21.63-21.11Zm0,33.49c6.19,0,11.16-5.32,11.16-12.38s-4.97-11.86-11.16-11.86-11.16,5.09-11.16,11.86,4.97,12.38,11.16,12.38Z"/>
    <path class="cls-2" d="M309.82,112.62s4.69,4.28,9.89,4.28c2.08,0,4.34-.81,4.34-3.3,0-4.92-18.63-4.74-18.63-17.47,0-7.64,6.42-12.67,14.63-12.67,8.91,0,13.3,4.69,13.3,4.69l-4.28,8.27s-4.17-3.64-9.14-3.64c-2.08,0-4.4,.93-4.4,3.24,0,5.21,18.63,4.28,18.63,17.35,0,6.88-5.26,12.84-14.58,12.84s-15.1-5.9-15.1-5.9l5.32-7.69Z"/>
  </g>
</svg>